HIERARCHY
ROOT root
{
	OFFSET 0.000000 0.000000 0.000000
	CHANNELS 6 Xposition Yposition Zposition Zrotation Yrotation Xrotation
	JOINT lhip
	{
		OFFSET 0.058581 -0.082280 -0.017664
		CHANNELS 3 Zrotation Yrotation Xrotation
		JOINT lknee
		{
			OFFSET 0.043451 -0.386469 0.008037
			CHANNELS 3 Zrotation Yrotation Xrotation
			JOINT lankle
			{
				OFFSET -0.014790 -0.426874 -0.037428
				CHANNELS 3 Zrotation Yrotation Xrotation
				JOINT ltoe
				{
					OFFSET 0.041054 -0.060286 0.122042
					CHANNELS 3 Zrotation Yrotation Xrotation
					End Site
					{
						OFFSET 0.000000 0.000000 0.000000
					}
				}
			}
		}
	}
	JOINT rhip
	{
		OFFSET -0.060310 -0.090513 -0.013543
		CHANNELS 3 Zrotation Yrotation Xrotation
		JOINT rknee
		{
			OFFSET -0.043257 -0.383688 -0.004843
			CHANNELS 3 Zrotation Yrotation Xrotation
			JOINT rankle
			{
				OFFSET 0.019056 -0.420046 -0.034562
				CHANNELS 3 Zrotation Yrotation Xrotation
				JOINT rtoe
				{
					OFFSET -0.034840 -0.062106 0.130323
					CHANNELS 3 Zrotation Yrotation Xrotation
					End Site
					{
						OFFSET 0.000000 0.000000 0.000000
					}
				}
			}
		}
	}
	JOINT lowerback
	{
		OFFSET 0.004439 0.124404 -0.038385
		CHANNELS 3 Zrotation Yrotation Xrotation
		JOINT upperback
		{
			OFFSET 0.004488 0.137956 0.026820
			CHANNELS 3 Zrotation Yrotation Xrotation
			JOINT chest
			{
				OFFSET -0.002265 0.056032 0.002855
				CHANNELS 3 Zrotation Yrotation Xrotation
				JOINT lowerneck
				{
					OFFSET -0.013390 0.211636 -0.033468
					CHANNELS 3 Zrotation Yrotation Xrotation
					JOINT upperneck
					{
						OFFSET 0.010113 0.088937 0.050410
						CHANNELS 3 Zrotation Yrotation Xrotation
						End Site
						{
							OFFSET 0.000000 0.000000 0.000000
						}
					}
				}
				JOINT lclavicle
				{
					OFFSET 0.071702 0.114000 -0.018898
					CHANNELS 3 Zrotation Yrotation Xrotation
					JOINT lshoulder
					{
						OFFSET 0.122921 0.045205 -0.019046
						CHANNELS 3 Zrotation Yrotation Xrotation
						JOINT lelbow
						{
							OFFSET 0.255332 -0.015649 -0.022946
							CHANNELS 3 Zrotation Yrotation Xrotation
							JOINT lwrist
							{
								OFFSET 0.265709 0.012698 -0.007375
								CHANNELS 3 Zrotation Yrotation Xrotation
								End Site
								{
									OFFSET 0.000000 0.000000 0.000000
								}
							}
						}
					}
				}
				JOINT rclavicle
				{
					OFFSET -0.082954 0.112472 -0.023707
					CHANNELS 3 Zrotation Yrotation Xrotation
					JOINT rshoulder
					{
						OFFSET -0.113228 0.046853 -0.008472
						CHANNELS 3 Zrotation Yrotation Xrotation
						JOINT relbow
						{
							OFFSET -0.260127 -0.014369 -0.031269
							CHANNELS 3 Zrotation Yrotation Xrotation
							JOINT rwrist
							{
								OFFSET -0.269108 0.006794 -0.006027
								CHANNELS 3 Zrotation Yrotation Xrotation
								End Site
								{
									OFFSET 0.000000 0.000000 0.000000
								}
							}
						}
					}
				}
			}
		}
	}
}
MOTION
Frames: 14
Frame Time: 0.033333
1.747770 0.322646 1.020820 -96.581254 3.577259 94.129513 -0.653701 -0.866540 7.031955 -4.468287 -3.545551 31.017961 -0.987457 18.583734 7.916595 0.000000 -0.000000 0.000000 1.340696 3.501908 -30.292164 4.424699 -7.502940 7.753271 2.815117 -9.516924 21.729962 0.000000 -0.000000 0.000000 1.050354 -9.602203 -7.810650 3.021045 -7.308733 14.186745 -2.326523 -3.898747 -1.827608 -8.744164 5.598036 23.628770 1.200119 9.091861 -6.964877 -18.599812 7.860757 3.137029 -49.153525 -7.145082 19.092851 -118.726499 -73.458674 153.245134 21.493562 -20.894543 15.724346 6.840657 -21.151282 3.248049 49.544402 -28.726509 2.748381 51.337419 73.813302 76.863564 -19.092228 16.738166 -2.736011 
1.687116 0.329840 1.010863 -97.917260 3.360917 93.270981 -0.330358 -0.902250 5.583000 -5.200185 -0.040628 39.384104 -0.491673 19.330231 5.215818 0.000000 -0.000000 0.000000 1.704623 3.706765 -28.251347 4.622575 -8.163041 9.645623 2.806603 -8.887652 25.326622 0.000000 -0.000000 0.000000 0.701649 -8.380843 -7.394280 3.242856 -6.586108 14.472172 -2.546320 -3.447885 -2.006129 -8.085225 5.546618 24.040361 0.728155 8.171208 -7.939336 -18.919499 8.479743 3.261635 -49.547923 -6.578834 19.685708 -113.910178 -74.152167 148.887808 21.241780 -20.913842 15.534835 7.109576 -21.089152 3.226825 49.462047 -29.782415 2.730128 53.887126 73.413171 79.704082 -19.180640 16.874928 -3.295565 
1.627493 0.337005 0.991968 -99.333795 3.240558 91.517005 0.693738 -0.313155 4.132749 -5.696542 2.951268 48.648546 -0.269796 20.345255 1.872341 0.000000 -0.000000 0.000000 2.149626 4.448616 -25.897813 5.048807 -5.797477 17.231070 0.883453 -7.791746 12.870911 0.000000 -0.000000 0.000000 0.483318 -7.093961 -5.480913 2.893780 -5.515634 14.146198 -2.608204 -2.964167 -1.660481 -7.379493 5.035172 22.992634 0.779607 7.794827 -8.118765 -19.337386 9.975391 2.964368 -49.814833 -6.200203 19.647001 -108.921912 -74.260390 143.995660 21.285190 -20.483911 15.928810 8.197101 -20.963746 2.976762 48.966148 -28.951132 4.108400 53.798114 72.660107 79.994258 -19.897996 16.802676 -3.926716 
1.561077 0.345533 0.964931 -101.639359 3.688967 88.869178 2.548584 0.031604 0.767777 -6.386507 5.447921 60.388827 0.452928 21.942075 -3.145529 0.000000 -0.000000 0.000000 4.400605 5.172677 -23.285329 4.777836 -3.929495 28.035676 -2.978140 -9.376233 -4.561695 0.000000 -0.000000 0.000000 0.584331 -5.086525 -1.473052 2.594269 -3.824378 13.935707 -2.408339 -2.050453 -1.095904 -6.178828 3.941305 19.389917 0.399939 7.224458 -6.742960 -21.835532 10.981214 1.416376 -48.641462 -5.101982 19.557321 -99.207549 -75.694158 134.212787 21.000179 -19.564638 18.036374 11.929956 -19.465173 -0.342760 47.272044 -26.907593 7.054436 51.113360 71.455165 77.495942 -21.430964 16.380644 -4.177573 
1.524670 0.348824 0.952878 -102.503892 3.530547 87.448623 3.112679 -0.858402 -2.423810 -6.825295 6.603890 65.841748 1.038216 22.791572 -6.295113 0.000000 -0.000000 0.000000 5.166675 5.605650 -20.474283 4.431072 -2.368727 31.212467 -4.307927 -11.364650 -11.945834 0.000000 -0.000000 0.000000 0.015575 -3.687067 1.169309 2.542710 -3.269501 13.978145 -2.196314 -1.605303 -1.177850 -5.875431 2.867734 17.982879 0.526696 7.266739 -6.098861 -23.007140 11.900691 1.203032 -48.567463 -4.831051 19.397688 -86.942500 -76.903383 121.876565 20.797179 -18.143123 19.437289 14.139096 -18.460814 -1.688989 47.618299 -23.317389 8.742138 47.080797 70.515171 73.992785 -22.379121 15.533013 -3.484386 
1.478536 0.350281 0.943611 -102.322545 2.700235 86.735328 3.117798 -2.870438 -8.574930 -6.940279 7.266600 70.259832 1.834522 23.356104 -10.498691 0.000000 -0.000000 0.000000 4.874153 5.673709 -17.785856 3.764649 -1.418166 34.616015 -5.097864 -13.476055 -18.952469 0.000000 -0.000000 0.000000 -1.104744 -1.989557 3.118789 2.362648 -3.390715 14.407049 -2.202255 -1.107741 -1.720070 -5.636706 1.529526 17.116530 1.120347 7.318032 -4.909518 -23.584520 13.069966 1.778719 -48.661985 -3.746738 18.604911 -71.678179 -77.893596 106.068209 20.390080 -16.064873 19.871386 16.684659 -16.424447 -2.114401 49.447319 -17.903272 10.571533 42.726334 70.181480 70.497634 -23.527946 15.040517 -2.851359 
1.434880 0.349912 0.942460 -102.047560 2.369017 86.207569 3.566375 -4.104995 -14.525908 -6.633799 6.486233 70.055344 2.797450 23.602941 -14.010172 0.000000 -0.000000 0.000000 4.502981 5.131558 -14.713569 3.243537 -0.927474 36.275730 -4.173759 -13.735176 -22.814916 0.000000 -0.000000 0.000000 -1.102361 -0.262240 5.345254 2.124941 -3.165994 14.256097 -2.443365 -0.462766 -2.279283 -5.495711 0.273630 17.034326 1.519130 6.303386 -4.080020 -24.122482 13.798465 2.257750 -47.867387 -1.858260 17.868396 -60.674961 -78.077123 95.284015 20.520658 -16.093423 19.938380 18.897183 -13.548659 -2.348805 51.180990 -13.240169 11.925368 40.047032 70.583317 68.480921 -24.681485 15.861762 -2.323112 
1.391395 0.349861 0.945284 -102.022341 1.543967 86.320881 3.997452 -4.926774 -19.854184 -6.065584 6.046081 65.189097 3.669121 23.760401 -15.797736 0.000000 -0.000000 0.000000 3.944316 4.185026 -10.908234 2.352225 0.465551 35.214618 -3.042891 -13.826161 -25.852276 0.000000 -0.000000 0.000000 -1.835593 2.113425 6.707390 1.886189 -2.696660 14.182720 -2.318136 0.199695 -3.042795 -5.064054 -0.774550 17.643203 1.827055 4.516612 -3.560397 -23.401265 14.894340 2.692787 -46.974417 0.488103 17.629020 -57.861631 -77.630960 93.655035 20.614094 -16.379113 20.123034 19.797901 -10.917456 -1.684966 53.484896 -8.136508 13.479608 36.237444 71.439206 65.670620 -25.123639 16.733663 -1.962219 
1.347485 0.349654 0.949287 -101.920793 0.589798 87.026788 4.604269 -5.255274 -24.190394 -5.329520 6.171274 56.839372 4.312068 24.008277 -16.425369 0.000000 -0.000000 0.000000 3.207600 3.495164 -6.910344 1.243417 1.851001 32.668972 -1.917170 -13.788736 -27.734680 0.000000 -0.000000 0.000000 -2.887611 4.730164 6.994507 1.643877 -1.961381 14.556066 -2.323617 1.420063 -3.646285 -3.607470 -2.141524 17.832907 2.302098 2.232500 -3.118638 -21.726494 15.772906 3.241391 -45.744739 2.304950 17.831687 -61.654564 -77.114554 98.590127 21.080526 -17.151244 18.246822 20.333184 -8.713215 -1.562462 55.548689 -3.849100 14.991999 32.884077 72.924708 63.237113 -26.035694 17.053849 -2.899388 
1.292458 0.347449 0.953148 -101.574465 0.096080 88.135514 5.334102 -4.546989 -27.876004 -4.767955 5.802444 44.380036 5.010861 23.746140 -16.467823 0.000000 -0.000000 0.000000 2.124695 1.991292 -2.196186 0.758582 3.246072 29.296399 -0.118919 -13.027280 -28.317434 0.000000 -0.000000 0.000000 -2.677020 7.516234 7.548361 1.100574 -0.623464 14.286063 -2.739884 2.741627 -3.880357 -1.713196 -3.988653 16.988331 2.540591 -0.810825 -2.552833 -19.866750 16.763597 3.650125 -43.601367 4.568720 17.745774 -68.924204 -76.265357 106.723470 21.121026 -17.613030 16.371020 20.189202 -6.061360 -1.223413 57.260940 1.521489 15.872299 30.297515 74.633461 60.784877 -26.704039 16.633536 -3.856833 
1.248249 0.345007 0.953291 -101.721047 0.065285 89.442884 5.517030 -2.961544 -30.522469 -4.610672 5.171696 36.220222 5.450411 22.797685 -15.803096 0.000000 -0.000000 0.000000 0.910441 0.468527 0.618772 1.053681 3.785939 27.473976 1.274377 -11.734466 -28.481097 0.000000 -0.000000 0.000000 -2.200973 9.525783 7.682014 0.674489 0.735597 13.914437 -3.163205 3.819137 -4.165225 -0.114375 -5.466782 16.030351 2.341134 -3.065822 -2.035360 -18.367040 17.885572 3.841024 -42.004495 6.413547 17.615510 -73.488538 -75.645938 111.827552 20.945403 -17.457235 15.317836 19.803880 -3.992947 -0.858188 57.441119 5.877059 16.409772 27.313258 75.770591 57.816365 -27.411092 16.374334 -4.561099 
1.202352 0.343448 0.950022 -102.348579 0.232069 90.732412 5.584998 -0.903692 -32.675176 -4.542521 5.610505 30.855339 5.790794 22.055998 -14.515802 0.000000 -0.000000 0.000000 -0.233872 -0.744203 2.976763 1.270056 4.091437 26.654758 2.401209 -10.226246 -28.326289 0.000000 -0.000000 0.000000 -2.141876 11.335861 7.284631 0.405261 2.187315 14.175215 -3.501916 5.071075 -4.816074 1.488474 -6.690118 15.452478 2.233588 -5.409816 -2.407396 -16.881637 19.063329 4.090003 -40.664106 8.384576 17.129700 -77.580317 -75.368262 115.882890 20.704885 -17.261766 14.344209 19.324152 -1.678628 -0.051585 56.649446 10.243091 16.413443 22.506011 76.520456 53.347119 -27.772675 16.571015 -4.319603 
1.153683 0.343015 0.943955 -102.928931 0.489218 91.864982 5.650362 0.870704 -33.925947 -4.119132 8.147012 27.939552 6.295291 21.906287 -12.908159 0.000000 -0.000000 0.000000 -1.052069 -1.320874 5.327138 1.146550 4.258936 26.440964 3.419445 -9.207455 -27.564876 0.000000 -0.000000 0.000000 -2.693272 12.850660 6.662291 0.226905 3.529914 14.397132 -3.778013 6.395024 -5.283955 3.627312 -7.740446 14.641471 2.139197 -7.821176 -2.678762 -15.221207 20.620386 4.085199 -39.532323 9.700168 16.701764 -80.519453 -75.058000 118.897782 20.375349 -17.105280 14.286662 18.933634 0.033445 0.700839 55.818629 14.373554 16.437574 15.773278 76.953720 46.421271 -27.901656 16.470716 -4.024478 
1.101809 0.342518 0.936295 -102.345154 0.655323 92.939843 5.297032 1.223226 -34.377685 -4.380490 10.227342 27.249670 8.513964 20.648076 -9.085916 0.000000 -0.000000 0.000000 -1.752101 -1.781505 7.487683 0.944660 3.780287 27.107290 4.115577 -8.755045 -25.354018 0.000000 -0.000000 0.000000 -3.641836 13.932639 5.977913 0.107797 4.301023 14.524056 -3.960697 7.276661 -5.629392 5.537925 -9.135650 13.581852 2.422697 -9.764308 -2.819270 -13.628635 21.826384 4.287606 -38.818835 10.472436 16.255619 -82.402329 -75.095605 120.890107 20.092240 -16.822580 14.522315 18.528647 0.880908 0.872964 55.796303 17.451206 16.809461 7.942712 77.103782 37.820864 -27.981158 15.653342 -3.995989 
